<mxfile host="app.diagrams.net" modified="2023-02-21T16:52:16.702Z" agent="5.0 (Windows NT 10.0; Win64; x64) AppleWebKit/537.36 (KHTML, like Gecko) Chrome/110.0.0.0 Safari/537.36 Edg/110.0.1587.50" etag="b7DEAR67ZzmQCFimSZ15" version="20.8.21" type="github">
  <diagram name="第 1 页" id="S_6YFdIcF-9ww0p1YDL5">
    <mxGraphModel dx="1787" dy="1634" grid="0" gridSize="10" guides="1" tooltips="1" connect="1" arrows="1" fold="1" page="0" pageScale="1" pageWidth="827" pageHeight="1169" math="0" shadow="0">
      <root>
        <mxCell id="0" />
        <mxCell id="1" parent="0" />
        <mxCell id="aLGXq0cIp_mJ-BxHqf-2-4" value="" style="rounded=0;whiteSpace=wrap;html=1;fontSize=20;" vertex="1" parent="1">
          <mxGeometry x="-52" y="-688" width="953" height="486" as="geometry" />
        </mxCell>
        <mxCell id="aLGXq0cIp_mJ-BxHqf-2-1" value="&lt;font style=&quot;font-size: 20px;&quot;&gt;栈&lt;/font&gt;" style="rounded=0;whiteSpace=wrap;html=1;fillColor=#dae8fc;strokeColor=#6c8ebf;" vertex="1" parent="1">
          <mxGeometry x="-7" y="-632" width="398" height="395" as="geometry" />
        </mxCell>
        <mxCell id="aLGXq0cIp_mJ-BxHqf-2-2" value="&lt;font style=&quot;font-size: 20px;&quot;&gt;堆&lt;/font&gt;" style="rounded=0;whiteSpace=wrap;html=1;fillColor=#e1d5e7;strokeColor=#9673a6;" vertex="1" parent="1">
          <mxGeometry x="467" y="-632" width="394" height="395" as="geometry" />
        </mxCell>
        <mxCell id="aLGXq0cIp_mJ-BxHqf-2-5" value="内存" style="text;html=1;strokeColor=none;fillColor=none;align=center;verticalAlign=middle;whiteSpace=wrap;rounded=0;fontSize=20;" vertex="1" parent="1">
          <mxGeometry x="-7" y="-676" width="60" height="30" as="geometry" />
        </mxCell>
        <mxCell id="aLGXq0cIp_mJ-BxHqf-2-7" value="let num = 10" style="text;html=1;align=center;verticalAlign=middle;resizable=0;points=[];autosize=1;strokeColor=none;fillColor=none;fontSize=20;" vertex="1" parent="1">
          <mxGeometry x="111" y="-749" width="129" height="36" as="geometry" />
        </mxCell>
        <mxCell id="aLGXq0cIp_mJ-BxHqf-2-8" value="10" style="rounded=1;whiteSpace=wrap;html=1;fontSize=20;fillColor=#ffcc99;strokeColor=#36393d;" vertex="1" parent="1">
          <mxGeometry x="116" y="-593" width="119" height="48" as="geometry" />
        </mxCell>
        <mxCell id="aLGXq0cIp_mJ-BxHqf-2-10" style="edgeStyle=orthogonalEdgeStyle;rounded=0;orthogonalLoop=1;jettySize=auto;html=1;fontSize=20;" edge="1" parent="1" source="aLGXq0cIp_mJ-BxHqf-2-9" target="aLGXq0cIp_mJ-BxHqf-2-8">
          <mxGeometry relative="1" as="geometry" />
        </mxCell>
        <mxCell id="aLGXq0cIp_mJ-BxHqf-2-9" value="num" style="text;html=1;strokeColor=none;fillColor=none;align=center;verticalAlign=middle;whiteSpace=wrap;rounded=0;fontSize=20;" vertex="1" parent="1">
          <mxGeometry x="-246" y="-584" width="60" height="30" as="geometry" />
        </mxCell>
        <mxCell id="aLGXq0cIp_mJ-BxHqf-2-11" value="堆栈空间" style="shape=curlyBracket;whiteSpace=wrap;html=1;rounded=1;labelPosition=left;verticalLabelPosition=middle;align=right;verticalAlign=middle;fontSize=20;" vertex="1" parent="1">
          <mxGeometry x="-7" y="-122" width="20" height="222" as="geometry" />
        </mxCell>
        <mxCell id="aLGXq0cIp_mJ-BxHqf-2-16" value="&lt;span style=&quot;font-size: 11px;&quot;&gt;栈（操作系统）：有操作系统自动分配释放存放函数的参数值、局部变量的值等等。其操作方式类似于数据结构中的栈；&lt;font color=&quot;#ff0000&quot;&gt;简单数据类型存放到栈里面&lt;/font&gt;&lt;/span&gt;" style="text;html=1;align=center;verticalAlign=middle;resizable=0;points=[];autosize=1;strokeColor=none;fillColor=none;fontSize=20;" vertex="1" parent="1">
          <mxGeometry x="49" y="-122" width="798" height="36" as="geometry" />
        </mxCell>
        <mxCell id="aLGXq0cIp_mJ-BxHqf-2-17" value="let obj = { age: 18 }" style="text;html=1;align=center;verticalAlign=middle;resizable=0;points=[];autosize=1;strokeColor=none;fillColor=none;fontSize=20;" vertex="1" parent="1">
          <mxGeometry x="550" y="-749" width="185" height="36" as="geometry" />
        </mxCell>
        <mxCell id="aLGXq0cIp_mJ-BxHqf-2-23" style="rounded=0;orthogonalLoop=1;jettySize=auto;html=1;entryX=0;entryY=0.5;entryDx=0;entryDy=0;fontSize=11;" edge="1" parent="1" target="aLGXq0cIp_mJ-BxHqf-2-22">
          <mxGeometry relative="1" as="geometry">
            <mxPoint x="238" y="-493" as="sourcePoint" />
          </mxGeometry>
        </mxCell>
        <mxCell id="aLGXq0cIp_mJ-BxHqf-2-18" value="0x112233" style="rounded=1;whiteSpace=wrap;html=1;fontSize=20;fillColor=#ffcc99;strokeColor=#36393d;" vertex="1" parent="1">
          <mxGeometry x="116" y="-519" width="119" height="48" as="geometry" />
        </mxCell>
        <mxCell id="aLGXq0cIp_mJ-BxHqf-2-21" style="edgeStyle=orthogonalEdgeStyle;rounded=0;orthogonalLoop=1;jettySize=auto;html=1;entryX=0;entryY=0.5;entryDx=0;entryDy=0;fontSize=11;" edge="1" parent="1" source="aLGXq0cIp_mJ-BxHqf-2-20" target="aLGXq0cIp_mJ-BxHqf-2-18">
          <mxGeometry relative="1" as="geometry" />
        </mxCell>
        <mxCell id="aLGXq0cIp_mJ-BxHqf-2-20" value="obj" style="text;html=1;strokeColor=none;fillColor=none;align=center;verticalAlign=middle;whiteSpace=wrap;rounded=0;fontSize=20;" vertex="1" parent="1">
          <mxGeometry x="-244" y="-510" width="60" height="30" as="geometry" />
        </mxCell>
        <mxCell id="aLGXq0cIp_mJ-BxHqf-2-22" value="{ age: 18 }" style="rounded=1;whiteSpace=wrap;html=1;fontSize=20;fillColor=#d5e8d4;strokeColor=#82b366;" vertex="1" parent="1">
          <mxGeometry x="581" y="-593" width="119" height="48" as="geometry" />
        </mxCell>
        <mxCell id="aLGXq0cIp_mJ-BxHqf-2-24" value="&lt;span style=&quot;font-size: 11px;&quot;&gt;堆（操作系统）：存储复杂类型（对象），一般由程序员分配释放，若程序员不释放，由垃圾回收机制回收。&lt;font color=&quot;#ff0000&quot;&gt;引用数据类型存放到堆里面&lt;/font&gt;&lt;/span&gt;" style="text;html=1;align=center;verticalAlign=middle;resizable=0;points=[];autosize=1;strokeColor=none;fillColor=none;fontSize=20;" vertex="1" parent="1">
          <mxGeometry x="53" y="64" width="738" height="36" as="geometry" />
        </mxCell>
      </root>
    </mxGraphModel>
  </diagram>
</mxfile>
